# xmcd
#
# Track frame offsets:
#	150
#	17837
#	36306
#	59142
#	77917
#	97007
#	114691
#	123986
#	140425
#	157380
#	180579
#	209805
#	226237
#	239795
#	253808
#	276096
#
# Disc length: 3946 seconds
#
# Revision: 1
# Processed by: cddbd v1.5.1PL0 Copyright (c) Steve Scherf et al.
# Submitted via: audiograbber 1.83.01
#
DISCID=fd0f6810
DTITLE=Various Artist - SPUNK - it's an illusion for the kids
DYEAR=2001
DGENRE=
TTITLE0=Jim O'Rourke - Ghost Ship In A Storm
TTITLE1=Sam Prekop - Practice Twice
TTITLE2=Arab Strap - Here We Go
TTITLE3=Built To Spill - Else
TTITLE4=The Black Heart Procession - Your Church Is Red
TTITLE5=Bonnie Prince Billie - Nomadic Reverie (All Around)
TTITLE6=The Lonesome Organist - The Low Strike
TTITLE7=To Roccoco Rot - Telema
TTITLE8=Trans Am - Runners Standing Still
TTITLE9=June Of 44 - Cardiac Atlas
TTITLE10=Mogwai - Cody
TTITLE11=The Apples In Stereo - Shiney Sea
TTITLE12=Smog - Let's Move To The Country
TTITLE13=Radar Bros - All The Ghosts
TTITLE14=Papa M - Live Show (Excerpt)
TTITLE15=Ganger - Lid Of The Stars (Edit)
EXTD=
EXTT0=
EXTT1=
EXTT2=
EXTT3=
EXTT4=
EXTT5=
EXTT6=
EXTT7=
EXTT8=
EXTT9=
EXTT10=
EXTT11=
EXTT12=
EXTT13=
EXTT14=
EXTT15=
PLAYORDER=
